<svg width="24" height="24" viewBox="0 0 24 24" fill="none" xmlns="http://www.w3.org/2000/svg">
<g id="fluent:call-12-regular">
<path id="Vector" d="M11.1219 5.102C10.974 4.69922 10.6775 4.36832 10.2934 4.17716C9.90919 3.98601 9.46645 3.9491 9.05593 4.074C7.10993 4.674 5.74993 6.344 6.04193 8.276C6.37052 10.4198 7.097 12.4832 8.18393 14.36C9.26085 16.2318 10.673 17.8894 12.3499 19.25C13.8579 20.47 15.9739 20.134 17.4659 18.734C17.7798 18.4394 17.9702 18.0368 17.9988 17.6073C18.0274 17.1779 17.892 16.7536 17.6199 16.42L16.5519 15.114C16.338 14.8514 16.0501 14.6591 15.7256 14.5621C15.4011 14.4651 15.0549 14.4679 14.7319 14.57L12.2679 15.35L11.8379 14.906C11.2964 14.3439 10.8225 13.7203 10.4259 13.048C10.0419 12.3676 9.74235 11.643 9.53393 10.89L9.36793 10.3L11.2679 8.55C11.5193 8.31767 11.6957 8.01561 11.7744 7.68248C11.8532 7.34935 11.8307 7.0003 11.7099 6.68L11.1219 5.102ZM8.46793 2.162C9.36624 1.88716 10.3356 1.96626 11.1775 2.3831C12.0194 2.79995 12.67 3.52296 12.9959 4.404L13.5819 5.98C13.8413 6.67228 13.8884 7.42613 13.7174 8.14534C13.5465 8.86454 13.1651 9.5165 12.6219 10.018L11.6419 10.92C11.7679 11.268 11.9379 11.666 12.1579 12.052C12.3779 12.432 12.6339 12.778 12.8679 13.06L14.1279 12.66C14.8324 12.4376 15.5873 12.4317 16.2951 12.6432C17.0029 12.8546 17.6309 13.2737 18.0979 13.846L19.1659 15.152C19.7595 15.8778 20.0553 16.8019 19.9937 17.7375C19.9321 18.673 19.5176 19.5503 18.8339 20.192C16.8459 22.058 13.5999 22.832 11.0939 20.804C9.22642 19.2893 7.65357 17.4439 6.45393 15.36C5.24113 13.2668 4.43053 10.9652 4.06393 8.574C3.58393 5.388 5.86993 2.962 8.46793 2.164" fill="black"/>
</g>
</svg>
