<svg width="634" height="164" viewBox="0 0 634 164" fill="none" xmlns="http://www.w3.org/2000/svg">
<rect x="305.882" y="22.1289" width="328.036" height="141.742" rx="70.8708" fill="#00C707"/>
<path d="M41.5537 53.9227V136.384H21.6228V53.9227H41.5537ZM73.7552 101.113V136.384H54.0659V74.5381H72.7888V85.8927H73.4733C74.8423 82.1078 77.1777 79.1417 80.4794 76.9942C83.781 74.82 87.7135 73.7328 92.2768 73.7328C96.6254 73.7328 100.397 74.7126 103.591 76.6721C106.812 78.6048 109.309 81.316 111.08 84.8055C112.879 88.2683 113.765 92.3216 113.738 96.9654V136.384H94.0485V100.831C94.0753 97.3949 93.2029 94.7106 91.4313 92.7779C89.6865 90.8452 87.2572 89.8789 84.1434 89.8789C82.0765 89.8789 80.2512 90.3352 78.6675 91.2478C77.1106 92.1337 75.9026 93.4087 75.0437 95.073C74.2115 96.7372 73.782 98.7505 73.7552 101.113ZM179.922 93.4221L161.844 93.9053C161.656 92.6168 161.146 91.476 160.314 90.4828C159.482 89.4628 158.394 88.6709 157.052 88.1072C155.737 87.5167 154.207 87.2214 152.462 87.2214C150.18 87.2214 148.234 87.6777 146.624 88.5904C145.04 89.5031 144.262 90.7378 144.288 92.2947C144.262 93.5027 144.745 94.5495 145.738 95.4353C146.758 96.3212 148.57 97.0325 151.174 97.5694L163.092 99.8242C169.266 101.005 173.856 102.965 176.862 105.703C179.896 108.441 181.426 112.065 181.452 116.574C181.426 120.815 180.164 124.506 177.668 127.647C175.198 130.788 171.816 133.23 167.521 134.975C163.226 136.693 158.314 137.552 152.784 137.552C143.953 137.552 136.987 135.74 131.887 132.116C126.814 128.466 123.915 123.58 123.19 117.46L142.638 116.977C143.067 119.232 144.181 120.95 145.98 122.131C147.778 123.312 150.073 123.902 152.865 123.902C155.388 123.902 157.441 123.433 159.025 122.493C160.609 121.554 161.414 120.305 161.441 118.748C161.414 117.353 160.797 116.239 159.589 115.407C158.381 114.548 156.489 113.876 153.912 113.393L143.121 111.34C136.92 110.212 132.303 108.132 129.27 105.099C126.237 102.039 124.733 98.1465 124.76 93.4221C124.733 89.2883 125.834 85.7585 128.062 82.8326C130.29 79.8799 133.457 77.6251 137.564 76.0682C141.671 74.5113 146.516 73.7328 152.1 73.7328C160.475 73.7328 167.078 75.491 171.91 79.0075C176.742 82.497 179.412 87.3019 179.922 93.4221ZM226.055 74.5381V89.0333H187.039V74.5381H226.055ZM195.213 59.7208H214.902V116.937C214.902 118.144 215.09 119.124 215.466 119.876C215.868 120.601 216.446 121.124 217.197 121.446C217.949 121.741 218.848 121.889 219.895 121.889C220.647 121.889 221.438 121.822 222.271 121.688C223.13 121.527 223.774 121.392 224.203 121.285L227.183 135.498C226.243 135.767 224.915 136.102 223.197 136.505C221.506 136.908 219.479 137.163 217.117 137.27C212.5 137.485 208.54 136.948 205.239 135.66C201.964 134.344 199.454 132.304 197.709 129.539C195.991 126.774 195.159 123.298 195.213 119.111V59.7208ZM253.536 137.431C249.59 137.431 246.087 136.774 243.027 135.458C239.994 134.116 237.591 132.103 235.82 129.419C234.075 126.707 233.202 123.312 233.202 119.232C233.202 115.796 233.806 112.897 235.014 110.535C236.222 108.172 237.886 106.253 240.007 104.777C242.128 103.3 244.57 102.186 247.335 101.435C250.1 100.656 253.053 100.133 256.193 99.8644C259.71 99.5423 262.542 99.2068 264.689 98.8578C266.837 98.482 268.393 97.9586 269.36 97.2875C270.353 96.5896 270.85 95.6098 270.85 94.3482V94.1469C270.85 92.08 270.138 90.4828 268.716 89.3554C267.293 88.228 265.374 87.6643 262.958 87.6643C260.354 87.6643 258.26 88.228 256.676 89.3554C255.093 90.4828 254.086 92.0397 253.657 94.0261L235.497 93.3819C236.034 89.6239 237.417 86.2685 239.645 83.3158C241.899 80.3362 244.986 78.0009 248.905 76.3097C252.851 74.5918 257.589 73.7328 263.119 73.7328C267.065 73.7328 270.702 74.2026 274.03 75.1421C277.359 76.0547 280.258 77.3969 282.728 79.1685C285.197 80.9133 287.103 83.0607 288.445 85.6108C289.814 88.1609 290.499 91.0734 290.499 94.3482V136.384H271.977V127.768H271.494C270.393 129.861 268.984 131.633 267.266 133.083C265.575 134.532 263.575 135.619 261.267 136.344C258.985 137.069 256.408 137.431 253.536 137.431ZM259.616 124.547C261.736 124.547 263.642 124.117 265.333 123.258C267.051 122.399 268.42 121.218 269.44 119.715C270.46 118.185 270.97 116.413 270.97 114.4V108.521C270.407 108.817 269.722 109.085 268.917 109.327C268.138 109.568 267.279 109.796 266.34 110.011C265.4 110.226 264.434 110.414 263.441 110.575C262.448 110.736 261.495 110.883 260.582 111.018C258.73 111.313 257.146 111.769 255.831 112.387C254.542 113.004 253.549 113.809 252.851 114.803C252.18 115.769 251.845 116.923 251.845 118.265C251.845 120.305 252.57 121.862 254.019 122.936C255.495 124.01 257.361 124.547 259.616 124.547Z" fill="black"/>
<path d="M381.013 80.8596C380.557 79.1685 379.886 77.6787 379 76.3903C378.114 75.075 377.027 73.961 375.738 73.0483C374.45 72.1357 372.974 71.4512 371.309 70.9948C369.645 70.5117 367.82 70.2701 365.833 70.2701C361.834 70.2701 358.371 71.2364 355.445 73.1691C352.546 75.1018 350.305 77.9203 348.721 81.6247C347.137 85.3021 346.345 89.7715 346.345 95.0327C346.345 100.321 347.11 104.83 348.64 108.562C350.171 112.293 352.385 115.138 355.284 117.098C358.183 119.057 361.7 120.037 365.833 120.037C369.484 120.037 372.571 119.446 375.094 118.265C377.644 117.057 379.577 115.353 380.892 113.152C382.208 110.951 382.865 108.36 382.865 105.381L386.57 105.824H366.518V91.2881H402.071V102.2C402.071 109.582 400.501 115.903 397.36 121.164C394.247 126.426 389.952 130.465 384.476 133.284C379.027 136.102 372.759 137.512 365.672 137.512C357.807 137.512 350.895 135.807 344.936 132.398C338.977 128.989 334.333 124.13 331.005 117.822C327.676 111.487 326.012 103.971 326.012 95.2743C326.012 88.5099 327.018 82.5105 329.032 77.2761C331.045 72.0149 333.85 67.5589 337.447 63.9083C341.071 60.2577 345.258 57.4928 350.009 55.6138C354.787 53.7348 359.928 52.7953 365.431 52.7953C370.209 52.7953 374.651 53.4798 378.758 54.8488C382.892 56.2178 386.543 58.1505 389.71 60.6469C392.904 63.1433 395.495 66.1094 397.481 69.5453C399.468 72.9812 400.702 76.7527 401.186 80.8596H381.013ZM453.721 109.689V74.5381H473.37V136.384H454.606V124.869H453.962C452.593 128.654 450.258 131.66 446.956 133.888C443.681 136.089 439.722 137.19 435.078 137.19C430.864 137.19 427.159 136.223 423.965 134.291C420.771 132.358 418.288 129.66 416.516 126.197C414.745 122.708 413.845 118.628 413.819 113.957V74.5381H433.508V110.092C433.535 113.447 434.42 116.091 436.165 118.024C437.91 119.956 440.286 120.923 443.292 120.923C445.252 120.923 447.01 120.493 448.567 119.634C450.15 118.748 451.399 117.473 452.311 115.809C453.251 114.118 453.721 112.078 453.721 109.689ZM485.902 136.384V74.5381H505.028V85.8122H505.672C506.799 81.732 508.638 78.6988 511.188 76.7124C513.738 74.6992 516.704 73.6926 520.086 73.6926C520.999 73.6926 521.939 73.7597 522.905 73.8939C523.871 74.0013 524.771 74.1757 525.603 74.4173V91.5297C524.663 91.2076 523.428 90.9526 521.898 90.7647C520.395 90.5768 519.053 90.4828 517.872 90.4828C515.537 90.4828 513.429 91.0063 511.55 92.0531C509.698 93.0732 508.235 94.5093 507.162 96.3614C506.115 98.1868 505.591 100.334 505.591 102.804V136.384H485.902ZM573.527 109.689V74.5381H593.176V136.384H574.413V124.869H573.769C572.4 128.654 570.065 131.66 566.763 133.888C563.488 136.089 559.529 137.19 554.885 137.19C550.671 137.19 546.966 136.223 543.772 134.291C540.578 132.358 538.095 129.66 536.323 126.197C534.551 122.708 533.652 118.628 533.625 113.957V74.5381H553.315V110.092C553.341 113.447 554.227 116.091 555.972 118.024C557.717 119.956 560.092 120.923 563.099 120.923C565.058 120.923 566.817 120.493 568.374 119.634C569.957 118.748 571.205 117.473 572.118 115.809C573.058 114.118 573.527 112.078 573.527 109.689Z" fill="white"/>
<g clip-path="url(#clip0_229_25)">
<path d="M8.18341 54.7308C0.452637 8.34619 62.2988 8.34619 54.568 54.7308ZM8.18341 47C-2.12429 31.5385 -2.12429 18.6539 8.18341 8.34619C8.18341 18.6539 13.3373 26.3847 23.6449 31.5385M39.1065 31.5385C49.4142 26.3847 54.568 18.6539 54.568 8.34619C64.8757 18.6539 64.8757 31.5385 54.568 47" fill="#090909"/>
</g>
<defs>
<clipPath id="clip0_229_25">
<rect width="61.8462" height="61.8462" fill="white" transform="translate(0.452637 0.615234)"/>
</clipPath>
</defs>
</svg>
