<svg width="92" height="32" viewBox="0 0 92 32" fill="none" xmlns="http://www.w3.org/2000/svg">
<path d="M0 14.0927C0 7.83963 5.06912 2.77051 11.3222 2.77051H38.0837C44.3368 2.77051 49.4059 7.83963 49.4059 14.0927V17.7674C49.4059 24.0204 44.3368 29.0896 38.0837 29.0896H11.3222C5.06913 29.0896 0 24.0204 0 17.7674V14.0927Z" fill="#16DAA7"/>
<path d="M4.71414 22V12.3006H7.40361V22H4.71414ZM6.05888 11.0599C5.65979 11.0599 5.31566 10.9269 5.02647 10.6609C4.74306 10.3948 4.60136 10.0738 4.60136 9.69785C4.60136 9.32191 4.74306 9.0038 5.02647 8.74353C5.31566 8.47747 5.65979 8.34445 6.05888 8.34445C6.45796 8.34445 6.7992 8.47747 7.08261 8.74353C7.3718 9.0038 7.51639 9.32191 7.51639 9.69785C7.51639 10.0738 7.3718 10.3948 7.08261 10.6609C6.7992 10.9269 6.45796 11.0599 6.05888 11.0599ZM12.2447 16.3955V22H9.55518V12.3006H12.2013V14.027H12.2967C12.5165 13.4602 12.8664 13.012 13.3465 12.6823C13.8265 12.3468 14.4251 12.1791 15.1423 12.1791C16.1545 12.1791 16.9642 12.5059 17.5715 13.1595C18.1846 13.8072 18.4912 14.698 18.4912 15.8316V22H15.8017V16.3087C15.8017 15.713 15.6484 15.2474 15.3419 14.912C15.0411 14.5765 14.6218 14.4088 14.0839 14.4088C13.5402 14.4088 13.0978 14.5852 12.7565 14.938C12.4153 15.285 12.2447 15.7708 12.2447 16.3955ZM28.6938 15.0681L26.2472 15.2156C26.1778 14.9091 26.0043 14.6459 25.7267 14.4261C25.4549 14.2005 25.0847 14.0878 24.6162 14.0878C24.1998 14.0878 23.8498 14.1745 23.5664 14.348C23.283 14.5215 23.1413 14.7529 23.1413 15.0421C23.1413 15.2734 23.2339 15.4701 23.419 15.632C23.604 15.794 23.9193 15.9241 24.3646 16.0224L26.1258 16.3695C27.9882 16.7396 28.9194 17.613 28.9194 18.9895C28.9194 19.6315 28.7343 20.1926 28.3641 20.6726C27.9939 21.1527 27.485 21.5257 26.8372 21.7918C26.1894 22.0578 25.4462 22.1909 24.6075 22.1909C23.3235 22.1909 22.3027 21.9248 21.545 21.3927C20.7873 20.8548 20.342 20.1232 20.2089 19.1977L22.8464 19.0589C23.0257 19.8571 23.6156 20.2562 24.6162 20.2562C25.0847 20.2562 25.4635 20.1636 25.7527 19.9786C26.0419 19.7935 26.1865 19.5592 26.1865 19.2758C26.1865 18.7958 25.773 18.4719 24.9459 18.3042L23.2715 17.9571C21.4033 17.5812 20.4692 16.6616 20.4692 15.1982C20.4692 14.2613 20.8423 13.5238 21.5884 12.9859C22.3403 12.4481 23.3351 12.1791 24.5728 12.1791C25.799 12.1791 26.7649 12.4394 27.4705 12.9599C28.1761 13.4747 28.5839 14.1774 28.6938 15.0681ZM35.7732 12.3006V14.3307H33.9339V19.0156C33.9339 19.646 34.2404 19.9612 34.8535 19.9612C34.9576 19.9612 35.0704 19.9525 35.1919 19.9352C35.3191 19.9178 35.429 19.8976 35.5216 19.8745L35.9467 21.8872C35.3741 22.0549 34.8188 22.1388 34.2809 22.1388C33.3208 22.1388 32.5747 21.8959 32.0426 21.4101C31.5163 20.9242 31.2531 20.2446 31.2531 19.3713V14.3307H29.9344V12.3006H31.2531V9.99283H33.9339V12.3006H35.7732ZM40.2932 22.1822C39.3678 22.1822 38.5985 21.9422 37.9855 21.4621C37.3782 20.9763 37.0745 20.2533 37.0745 19.2932C37.0745 18.5702 37.2422 18.0034 37.5777 17.5927C37.9189 17.1763 38.3672 16.8727 38.9224 16.6818C39.4777 16.4851 40.0734 16.3579 40.7096 16.3001C41.5541 16.2191 42.1556 16.1352 42.5142 16.0485C42.8786 15.9559 43.0607 15.7535 43.0607 15.4412V15.3978C43.0607 14.9987 42.9335 14.6893 42.679 14.4695C42.4245 14.2497 42.0573 14.1398 41.5772 14.1398C41.0971 14.1398 40.7038 14.2439 40.3973 14.4521C40.0965 14.6604 39.897 14.9264 39.7987 15.2503L37.3521 14.8599C37.5835 14.0155 38.0693 13.359 38.8097 12.8905C39.5558 12.4162 40.4812 12.1791 41.5859 12.1791C42.3031 12.1791 42.9769 12.2919 43.6073 12.5175C44.2435 12.743 44.7583 13.0987 45.1516 13.5846C45.5449 14.0646 45.7415 14.6893 45.7415 15.4585V22H43.1996V20.6466H43.1215C42.8843 21.1035 42.5315 21.4737 42.063 21.7571C41.6003 22.0405 41.0104 22.1822 40.2932 22.1822ZM39.6338 19.2064C39.6338 19.5766 39.7669 19.8571 40.0329 20.048C40.3048 20.233 40.646 20.3256 41.0567 20.3256C41.6466 20.3256 42.1296 20.155 42.5055 19.8137C42.8872 19.4725 43.0781 19.0474 43.0781 18.5384V17.506C42.974 17.5754 42.8091 17.639 42.5836 17.6969C42.3638 17.7547 42.1296 17.8039 41.8808 17.8443C41.6321 17.879 41.4095 17.9109 41.2128 17.9398C40.7385 18.0092 40.3568 18.1451 40.0676 18.3475C39.7784 18.5442 39.6338 18.8305 39.6338 19.2064Z" fill="white"/>
<path d="M53.4608 22L50.8234 12.3006H53.5389L55.0485 18.8247H55.1266L56.7055 12.3006H59.3603L60.9566 18.7813H61.0434L62.5183 12.3006H65.2338L62.5963 22H59.7507L58.085 15.901H57.9722L56.3065 22H53.4608ZM69.4328 22.1822C68.5074 22.1822 67.7381 21.9422 67.1251 21.4621C66.5178 20.9763 66.2141 20.2533 66.2141 19.2932C66.2141 18.5702 66.3818 18.0034 66.7173 17.5927C67.0586 17.1763 67.5068 16.8727 68.062 16.6818C68.6173 16.4851 69.213 16.3579 69.8492 16.3001C70.6937 16.2191 71.2952 16.1352 71.6538 16.0485C72.0182 15.9559 72.2004 15.7535 72.2004 15.4412V15.3978C72.2004 14.9987 72.0731 14.6893 71.8186 14.4695C71.5641 14.2497 71.1969 14.1398 70.7168 14.1398C70.2367 14.1398 69.8435 14.2439 69.5369 14.4521C69.2362 14.6604 69.0366 14.9264 68.9383 15.2503L66.4917 14.8599C66.7231 14.0155 67.2089 13.359 67.9493 12.8905C68.6954 12.4162 69.6208 12.1791 70.7255 12.1791C71.4427 12.1791 72.1165 12.2919 72.7469 12.5175C73.3831 12.743 73.8979 13.0987 74.2912 13.5846C74.6845 14.0646 74.8811 14.6893 74.8811 15.4585V22H72.3392V20.6466H72.2611C72.0239 21.1035 71.6711 21.4737 71.2026 21.7571C70.7399 22.0405 70.15 22.1822 69.4328 22.1822ZM68.7734 19.2064C68.7734 19.5766 68.9065 19.8571 69.1725 20.048C69.4444 20.233 69.7856 20.3256 70.1963 20.3256C70.7862 20.3256 71.2692 20.155 71.6451 19.8137C72.0268 19.4725 72.2177 19.0474 72.2177 18.5384V17.506C72.1136 17.5754 71.9488 17.639 71.7232 17.6969C71.5034 17.7547 71.2692 17.8039 71.0205 17.8443C70.7718 17.879 70.5491 17.9109 70.3524 17.9398C69.8782 18.0092 69.4964 18.1451 69.2072 18.3475C68.918 18.5442 68.7734 18.8305 68.7734 19.2064ZM79.7309 9.0732V22H77.0414V9.0732H79.7309ZM84.65 22.1822C83.7246 22.1822 82.9553 21.9422 82.3422 21.4621C81.7349 20.9763 81.4313 20.2533 81.4313 19.2932C81.4313 18.5702 81.599 18.0034 81.9345 17.5927C82.2757 17.1763 82.724 16.8727 83.2792 16.6818C83.8345 16.4851 84.4302 16.3579 85.0664 16.3001C85.9109 16.2191 86.5124 16.1352 86.871 16.0485C87.2353 15.9559 87.4175 15.7535 87.4175 15.4412V15.3978C87.4175 14.9987 87.2903 14.6893 87.0358 14.4695C86.7813 14.2497 86.414 14.1398 85.934 14.1398C85.4539 14.1398 85.0606 14.2439 84.7541 14.4521C84.4533 14.6604 84.2538 14.9264 84.1555 15.2503L81.7089 14.8599C81.9403 14.0155 82.4261 13.359 83.1664 12.8905C83.9125 12.4162 84.838 12.1791 85.9427 12.1791C86.6599 12.1791 87.3337 12.2919 87.9641 12.5175C88.6003 12.743 89.1151 13.0987 89.5084 13.5846C89.9017 14.0646 90.0983 14.6893 90.0983 15.4585V22H87.5563V20.6466H87.4783C87.2411 21.1035 86.8883 21.4737 86.4198 21.7571C85.9571 22.0405 85.3672 22.1822 84.65 22.1822ZM83.9906 19.2064C83.9906 19.5766 84.1237 19.8571 84.3897 20.048C84.6615 20.233 85.0028 20.3256 85.4134 20.3256C86.0034 20.3256 86.4863 20.155 86.8623 19.8137C87.244 19.4725 87.4349 19.0474 87.4349 18.5384V17.506C87.3308 17.5754 87.1659 17.639 86.9404 17.6969C86.7206 17.7547 86.4863 17.8039 86.2376 17.8443C85.9889 17.879 85.7663 17.9109 85.5696 17.9398C85.0953 18.0092 84.7136 18.1451 84.4244 18.3475C84.1352 18.5442 83.9906 18.8305 83.9906 19.2064Z" fill="#373737"/>
</svg>
