<svg width="24" height="24" viewBox="0 0 24 24" fill="none" xmlns="http://www.w3.org/2000/svg">
<path d="M20.7489 12.0002L21.8529 10.0922C21.9856 9.86262 22.0217 9.58977 21.9532 9.33361C21.8848 9.07745 21.7174 8.85896 21.4879 8.72618L19.5779 7.62218V5.42218C19.5779 5.15696 19.4725 4.90261 19.285 4.71507C19.0975 4.52754 18.8431 4.42218 18.5779 4.42218H16.3789L15.2759 2.51318C15.1433 2.28351 14.925 2.11589 14.6689 2.04718C14.542 2.01318 14.4097 2.00451 14.2794 2.02167C14.1492 2.03883 14.0236 2.08148 13.9099 2.14718L11.9999 3.25118L10.0899 2.14618C9.86021 2.01358 9.58726 1.97764 9.33109 2.04628C9.07491 2.11492 8.8565 2.28251 8.72388 2.51218L7.61988 4.42218H5.42088C5.15567 4.42218 4.90131 4.52754 4.71378 4.71507C4.52624 4.90261 4.42088 5.15696 4.42088 5.42218V7.62118L2.51088 8.72518C2.39711 8.79093 2.29741 8.87845 2.21749 8.98275C2.13756 9.08705 2.07898 9.20608 2.04508 9.33303C2.01118 9.45999 2.00264 9.59238 2.01993 9.72264C2.03723 9.8529 2.08003 9.97847 2.14588 10.0922L3.24988 12.0002L2.14588 13.9082C2.01387 14.138 1.97806 14.4106 2.04624 14.6667C2.11443 14.9227 2.28109 15.1415 2.50988 15.2752L4.41988 16.3792V18.5782C4.41988 18.8434 4.52524 19.0977 4.71278 19.2853C4.90031 19.4728 5.15467 19.5782 5.41988 19.5782H7.61988L8.72388 21.4882C8.81242 21.6395 8.93882 21.7652 9.09066 21.8529C9.2425 21.9405 9.41455 21.9872 9.58988 21.9882C9.76388 21.9882 9.93688 21.9422 10.0909 21.8532L11.9989 20.7492L13.9089 21.8532C14.1384 21.9859 14.4113 22.022 14.6675 21.9535C14.9236 21.8851 15.1421 21.7177 15.2749 21.4882L16.3779 19.5782H18.5769C18.8421 19.5782 19.0965 19.4728 19.284 19.2853C19.4715 19.0977 19.5769 18.8434 19.5769 18.5782V16.3792L21.4869 15.2752C21.6007 15.2094 21.7004 15.1219 21.7803 15.0176C21.8602 14.9133 21.9188 14.7943 21.9527 14.6673C21.9866 14.5404 21.9951 14.408 21.9778 14.2777C21.9605 14.1475 21.9177 14.0219 21.8519 13.9082L20.7489 12.0002ZM9.49888 6.99018C9.89684 6.99031 10.2784 7.14853 10.5598 7.43002C10.8411 7.71151 10.999 8.09322 10.9989 8.49118C10.9988 8.88914 10.8405 9.27074 10.559 9.55205C10.2776 9.83335 9.89584 9.99131 9.49788 9.99118C9.09993 9.99105 8.71832 9.83283 8.43702 9.55134C8.15571 9.26985 7.99775 8.88814 7.99788 8.49018C7.99802 8.09222 8.15623 7.71062 8.43772 7.42931C8.71922 7.14801 9.10093 6.99005 9.49888 6.99018ZM9.79888 16.5902L8.19888 15.3912L14.1989 7.39118L15.7989 8.59018L9.79888 16.5902ZM14.4989 16.9902C14.3018 16.9901 14.1067 16.9512 13.9247 16.8758C13.7427 16.8003 13.5773 16.6897 13.438 16.5503C13.2987 16.411 13.1883 16.2455 13.1129 16.0634C13.0376 15.8814 12.9988 15.6862 12.9989 15.4892C12.9989 15.2921 13.0378 15.097 13.1133 14.915C13.1888 14.733 13.2993 14.5676 13.4387 14.4283C13.5781 14.289 13.7436 14.1786 13.9256 14.1032C14.1077 14.0279 14.3028 13.9891 14.4999 13.9892C14.8978 13.9893 15.2794 14.1475 15.5608 14.429C15.8421 14.7105 16 15.0922 15.9999 15.4902C15.9998 15.8881 15.8415 16.2697 15.56 16.551C15.2786 16.8324 14.8968 16.9903 14.4989 16.9902Z" fill="#34A853"/>
</svg>
